<svg id="Layer_1" data-name="Layer 1" xmlns="http://www.w3.org/2000/svg" viewBox="0 0 16.01 16.01"><defs><style>.cls-1{fill:#007fcc;}</style></defs><path class="cls-1" d="M10.41,9l6.3-6.29a1,1,0,0,0,0-1.42,1,1,0,0,0-1.42,0L9,7.59,2.71,1.29a1,1,0,0,0-1.42,0,1,1,0,0,0,0,1.42L7.59,9l-6.3,6.29a1,1,0,0,0-.22.33.94.94,0,0,0,0,.76,1,1,0,0,0,.55.55A1,1,0,0,0,2,17a1,1,0,0,0,.38-.08,1,1,0,0,0,.33-.22L9,10.41l6.29,6.3a1,1,0,0,0,.33.22.94.94,0,0,0,.76,0,1,1,0,0,0,.55-.55.94.94,0,0,0,0-.76,1,1,0,0,0-.22-.33Z" transform="translate(-0.99 -1)"/></svg>